REM DIRINDEX 1\2,1\3,1\4,1\6,1\5\7,1\5\8
REM DIRNAME folder01,folder02,folder03,folder04,folder05,folder06,folder07,folder08
TITLE ""
FILE "DB4500_5th_4B_42.mp3" MP3
  TRACK 01 AUDIO
    TITLE "0:"
    INDEX 01 00:00:00
  TRACK 02 AUDIO
    TITLE "2:cjc114_3143"
    INDEX 01 00:00:09
  TRACK 03 AUDIO
    TITLE "0:"
    INDEX 01 00:01:11
  TRACK 04 AUDIO
    TITLE "3:cjc114_3144"
    INDEX 01 00:01:38
  TRACK 05 AUDIO
    TITLE "0:"
    INDEX 01 00:02:51
  TRACK 06 AUDIO
    TITLE "4:cjc114_3145"
    INDEX 01 00:03:02
  TRACK 07 AUDIO
    TITLE "0:"
    INDEX 01 00:06:37
  TRACK 08 AUDIO
    TITLE "2:cjc114_3146"
    INDEX 01 00:07:17
  TRACK 09 AUDIO
    TITLE "0:"
    INDEX 01 00:08:23
  TRACK 10 AUDIO
    TITLE "3:cjc114_3147"
    INDEX 01 00:08:50
  TRACK 11 AUDIO
    TITLE "0:"
    INDEX 01 00:10:35
  TRACK 12 AUDIO
    TITLE "4:cjc114_3148"
    INDEX 01 00:10:65
  TRACK 13 AUDIO
    TITLE "0:"
    INDEX 01 00:13:55
  TRACK 14 AUDIO
    TITLE "2:cjc114_3149"
    INDEX 01 00:14:33
  TRACK 15 AUDIO
    TITLE "0:"
    INDEX 01 00:15:44
  TRACK 16 AUDIO
    TITLE "3:cjc114_3150"
    INDEX 01 00:15:74
  TRACK 17 AUDIO
    TITLE "0:"
    INDEX 01 00:17:06
  TRACK 18 AUDIO
    TITLE "4:cjc114_3151"
    INDEX 01 00:17:33
  TRACK 19 AUDIO
    TITLE "0:"
    INDEX 01 00:21:27
  TRACK 20 AUDIO
    TITLE "2:cjc114_3152"
    INDEX 01 00:22:07
  TRACK 21 AUDIO
    TITLE "0:"
    INDEX 01 00:23:20
  TRACK 22 AUDIO
    TITLE "3:cjc114_3153"
    INDEX 01 00:23:50
  TRACK 23 AUDIO
    TITLE "0:"
    INDEX 01 00:24:67
  TRACK 24 AUDIO
    TITLE "4:cjc114_3154"
    INDEX 01 00:25:19
  TRACK 25 AUDIO
    TITLE "0:"
    INDEX 01 00:27:47
  TRACK 26 AUDIO
    TITLE "2:cjc114_3155"
    INDEX 01 00:28:27
  TRACK 27 AUDIO
    TITLE "0:"
    INDEX 01 00:29:44
  TRACK 28 AUDIO
    TITLE "3:cjc114_3156"
    INDEX 01 00:29:72
  TRACK 29 AUDIO
    TITLE "0:"
    INDEX 01 00:31:14
  TRACK 30 AUDIO
    TITLE "4:cjc114_3157"
    INDEX 01 00:31:41
  TRACK 31 AUDIO
    TITLE "0:"
    INDEX 01 00:34:34
  TRACK 32 AUDIO
    TITLE "2:cjc114_3158"
    INDEX 01 00:35:14
  TRACK 33 AUDIO
    TITLE "0:"
    INDEX 01 00:36:27
  TRACK 34 AUDIO
    TITLE "3:cjc114_3159"
    INDEX 01 00:36:56
  TRACK 35 AUDIO
    TITLE "0:"
    INDEX 01 00:37:50
  TRACK 36 AUDIO
    TITLE "4:cjc114_3160"
    INDEX 01 00:38:04
  TRACK 37 AUDIO
    TITLE "0:"
    INDEX 01 00:41:08
  TRACK 38 AUDIO
    TITLE "2:cjc114_3161"
    INDEX 01 00:41:61
  TRACK 39 AUDIO
    TITLE "0:"
    INDEX 01 00:43:05
  TRACK 40 AUDIO
    TITLE "3:cjc114_3162"
    INDEX 01 00:43:39
  TRACK 41 AUDIO
    TITLE "0:"
    INDEX 01 00:44:67
  TRACK 42 AUDIO
    TITLE "4:cjc114_3163"
    INDEX 01 00:45:22
  TRACK 43 AUDIO
    TITLE "0:"
    INDEX 01 00:48:18
  TRACK 44 AUDIO
    TITLE "2:cjc114_3164"
    INDEX 01 00:48:73
  TRACK 45 AUDIO
    TITLE "0:"
    INDEX 01 00:50:13
  TRACK 46 AUDIO
    TITLE "3:cjc114_3165"
    INDEX 01 00:50:42
  TRACK 47 AUDIO
    TITLE "0:"
    INDEX 01 00:52:00
  TRACK 48 AUDIO
    TITLE "4:cjc114_3166"
    INDEX 01 00:52:28
  TRACK 49 AUDIO
    TITLE "0:"
    INDEX 01 00:57:11
  TRACK 50 AUDIO
    TITLE "2:cjc114_3167"
    INDEX 01 00:57:66
  TRACK 51 AUDIO
    TITLE "0:"
    INDEX 01 00:58:69
  TRACK 52 AUDIO
    TITLE "3:cjc114_3168"
    INDEX 01 00:59:24
  TRACK 53 AUDIO
    TITLE "0:"
    INDEX 01 01:00:57
  TRACK 54 AUDIO
    TITLE "4:cjc114_3169"
    INDEX 01 01:01:09
  TRACK 55 AUDIO
    TITLE "0:"
    INDEX 01 01:05:64
  TRACK 56 AUDIO
    TITLE "2:cjc114_3170"
    INDEX 01 01:06:42
  TRACK 57 AUDIO
    TITLE "0:"
    INDEX 01 01:07:49
  TRACK 58 AUDIO
    TITLE "3:cjc114_3171"
    INDEX 01 01:08:03
  TRACK 59 AUDIO
    TITLE "0:"
    INDEX 01 01:09:40
  TRACK 60 AUDIO
    TITLE "4:cjc114_3172"
    INDEX 01 01:09:65
  TRACK 61 AUDIO
    TITLE "0:"
    INDEX 01 01:12:34
  TRACK 62 AUDIO
    TITLE "2:cjc114_3173"
    INDEX 01 01:13:14
  TRACK 63 AUDIO
    TITLE "0:"
    INDEX 01 01:14:19
  TRACK 64 AUDIO
    TITLE "3:cjc114_3174"
    INDEX 01 01:14:47
  TRACK 65 AUDIO
    TITLE "0:"
    INDEX 01 01:15:70
  TRACK 66 AUDIO
    TITLE "4:cjc114_3175"
    INDEX 01 01:16:24
  TRACK 67 AUDIO
    TITLE "0:"
    INDEX 01 01:20:18
  TRACK 68 AUDIO
    TITLE "2:cjc114_3176"
    INDEX 01 01:20:73
  TRACK 69 AUDIO
    TITLE "0:"
    INDEX 01 01:22:09
  TRACK 70 AUDIO
    TITLE "3:cjc114_3177"
    INDEX 01 01:22:39
  TRACK 71 AUDIO
    TITLE "0:"
    INDEX 01 01:25:41
  TRACK 72 AUDIO
    TITLE "4:cjc114_3178"
    INDEX 01 01:25:68
  TRACK 73 AUDIO
    TITLE "0:"
    INDEX 01 01:29:45
